HIERARCHY
ROOT pelvis
{
  OFFSET 0 100 0
  CHANNELS 6 Xposition Yposition Zposition Zrotation Xrotation Yrotation
  JOINT pelvis_right_femur
  {
    OFFSET -10.78128 -3.44521 -0.5502486
    CHANNELS 3 Zrotation Xrotation Yrotation
    JOINT right_femur_tibia
    {
      OFFSET -0.8047443 -44.0398 -0.1307829
      CHANNELS 3 Zrotation Xrotation Yrotation
      JOINT right_tibia_foot
      {
        OFFSET 3.006224 -47.83518 -5
        CHANNELS 3 Zrotation Xrotation Yrotation
        End Site
        {
          OFFSET 0 -5 15
        }
      }
    }
  }
  JOINT pelvis_left_femur
  {
    OFFSET 10.78128 -3.44521 -0.5502486
    CHANNELS 3 Zrotation Xrotation Yrotation
    JOINT left_femur_tibia
    {
      OFFSET 0.8047443 -44.0398 -0.1307829
      CHANNELS 3 Zrotation Xrotation Yrotation
      JOINT left_tibia_foot
      {
        OFFSET -4.370144 -48.10324 -4.275266
        CHANNELS 3 Zrotation Xrotation Yrotation
        End Site
        {
          OFFSET 0 -5 15
        }
      }
    }
  }
  JOINT pelvis_spine1
  {
    OFFSET 0 6.468898 -3.129235
    CHANNELS 3 Zrotation Xrotation Yrotation
    JOINT spine1
    {
      OFFSET 0 23.15396 4.99043
      CHANNELS 3 Zrotation Xrotation Yrotation
      JOINT spine2
      {
        OFFSET 0 20.79997 -5.064912
        CHANNELS 3 Zrotation Xrotation Yrotation
        JOINT neck
        {
          OFFSET 0 14.38658 9.616178
          CHANNELS 3 Zrotation Xrotation Yrotation
          End Site
          {
            OFFSET 0 20 0
          }
        }
      }
      JOINT right_manubrium
      {
        OFFSET -5.722621 16.35077 3.967754
        CHANNELS 3 Zrotation Xrotation Yrotation
        JOINT right_clavicle
        {
          OFFSET -13.16364 1.694482 -4.693211
          CHANNELS 3 Zrotation Xrotation Yrotation
          JOINT right_humerus
          {
            OFFSET -28.5034 -0.3100689 -2.792744
            CHANNELS 3 Zrotation Xrotation Yrotation
            JOINT right_radius
            {
              OFFSET -25.15693 0.02248979 -1.271978
              CHANNELS 3 Zrotation Xrotation Yrotation
              End Site
              {
                OFFSET -15 0 0
              }
            }
          }
        }
      }
      JOINT left_manubrium
      {
        OFFSET 5.722621 16.35077 3.967754
        CHANNELS 3 Zrotation Xrotation Yrotation
        JOINT left_clavicle
        {
          OFFSET 13.16364 1.694482 -4.693211
          CHANNELS 3 Zrotation Xrotation Yrotation
          JOINT left_humerus
          {
            OFFSET 29.39168 -1.063119 -2.237045
            CHANNELS 3 Zrotation Xrotation Yrotation
            JOINT left_radius
            {
              OFFSET 24.59957 -0.9528479 0.9047498
              CHANNELS 3 Zrotation Xrotation Yrotation
              End Site
              {
                OFFSET 15 -0 -0
              }
            }
          }
        }
      }
    }
  }
}
MOTION
Frames: 9
Frame Time: 0.0416666666667
-1504.94 106.6075 2249.773 -11.27795 1.628708 -96.54216 3.800702 -15.45153 -10.41042 -0 11.4026 -0 -23.04949 15.5288 4.884612 -3.21274 12.35391 -3.560356 -0 30.10099 -0 8.33054 -9.894221 14.73333 0.8024196 -3.59155 2.226953 0.2592875 18.40297 -7.787823 0.8645826 22.6172 4.026254 3.336038 -19.44753 4.129749 -6.566428 -23.30352 12.14411 101.3023 11.55888 -21.704 -0 0 6.169543 -25.12436 7.592103 8.69732 7.058804 -32.4212 -11.42302 -85.93472 -2.221731 13.40533 0 0 -20.37156 29.70981 12.20369 -25.55641
-1511.792 107.0115 2248.864 -11.47121 1.822666 -96.87532 4.376206 -14.42497 -10.3086 -0 8.971595 -0 -22.9151 15.04764 4.638343 -2.791364 11.19655 -2.697005 -0 34.42668 -0 7.520825 -8.816523 14.18893 1.107482 -3.428728 2.441526 0.2515981 18.47604 -7.720398 0.9044644 22.61759 3.864605 3.267284 -19.24288 3.975169 -6.693995 -23.17853 12.22266 101.3288 11.31964 -21.69705 -0 0 5.975316 -25.384 7.909308 8.73445 6.913529 -32.4603 -11.47279 -85.9157 -2.442777 13.32719 0 0 -20.59583 29.42757 12.01648 -25.25697
-1518.793 107.5191 2247.876 -11.6579 1.985617 -97.32012 4.927848 -12.24611 -9.994021 -0 7.344878 -0 -22.37962 14.15084 4.266896 -2.24891 8.99577 -1.894636 -0 37.97077 -0 6.60465 -7.623534 13.87995 1.335871 -3.212244 2.796909 0.1540615 18.43003 -7.481694 0.9666684 22.62675 3.709188 3.178218 -18.97072 3.859155 -6.701608 -23.16757 12.2726 100.9511 11.33848 -21.1944 -0 0 6.324144 -25.76377 8.256318 8.988519 6.70949 -32.10084 -11.37495 -86.03936 -2.259848 13.73016 0 0 -20.21683 28.61129 11.95489 -24.26369
-1525.885 108.0706 2246.843 -11.7189 2.122788 -97.86804 5.428521 -9.328053 -9.535563 -0 6.112954 -0 -21.61618 12.72512 3.87151 -1.594256 5.999228 -1.262744 -0 40.10069 -0 5.771091 -6.494747 13.86495 1.481304 -2.992386 3.262785 0.0205227 18.27497 -7.140375 1.024153 22.61236 3.576371 3.082298 -18.74659 3.77996 -6.606625 -23.34824 12.29859 100.2065 11.63846 -20.30259 -0 0 7.223836 -26.10779 8.568694 9.387877 6.501946 -31.4626 -11.12748 -86.32871 -1.736018 14.63473 0 0 -19.38871 27.46858 12.0248 -22.82689
-1532.996 108.5715 2245.8 -11.60664 2.232902 -98.50733 5.844078 -6.004156 -8.996708 -0 5.109214 -0 -20.76516 10.80847 3.535723 -0.8713909 2.470566 -0.8535939 -0 40.49717 -0 5.140197 -5.555069 14.15003 1.540547 -2.804423 3.802101 -0.117475 18.03265 -6.74652 1.061583 22.56118 3.476207 2.989889 -18.63082 3.734988 -6.431934 -23.74784 12.30427 99.16048 12.18661 -19.11179 -0 0 8.618056 -26.33666 8.803029 9.876267 6.322398 -30.64609 -10.75235 -86.79389 -0.9631008 15.99879 0 0 -18.23131 26.16865 12.21054 -21.15866
-1540.054 108.9244 2244.78 -11.33214 2.310905 -99.22096 6.147528 -2.496915 -8.421237 -0 4.345422 -0 -19.90869 8.533334 3.304901 -0.1374448 -1.361663 -0.6697304 -0 39.16307 -0 4.755466 -4.859441 14.70119 1.515499 -2.664593 4.380077 -0.2487616 17.72758 -6.328979 1.0752 22.47566 3.412003 2.907032 -18.63294 3.721652 -6.198821 -24.34781 12.29274 97.88662 12.91906 -17.69105 -0 0 10.40911 -26.43746 8.942497 10.41753 6.179771 -29.72011 -10.28322 -87.43003 -0.03336252 17.7369 0 0 -16.82803 24.81798 12.48613 -19.3989
-1546.997 109.0489 2243.814 -10.93339 2.352965 -99.9886 6.327896 1.050137 -7.833283 -0 3.873833 -0 -19.08241 6.051574 3.189429 0.5581494 -5.317646 -0.6844438 -0 36.33012 -0 4.606087 -4.407395 15.46293 1.414893 -2.57482 4.968878 -0.371813 17.38158 -5.903965 1.067931 22.36514 3.381891 2.836123 -18.73501 3.736664 -5.924815 -25.10331 12.26771 96.45553 13.76606 -16.09953 -0 0 12.4829 -26.43002 8.991047 10.98796 6.070172 -28.73101 -9.75426 -88.21919 0.9747139 19.74491 0 0 -15.24734 23.47352 12.82271 -17.62758
-1553.781 108.8914 2242.925 -10.45392 2.359094 -100.7895 6.388387 4.519522 -7.243203 -0 3.719124 -0 -18.2945 3.502784 3.174693 1.177982 -9.240667 -0.8602159 -0 32.36904 -0 4.648556 -4.168839 16.36854 1.253047 -2.528165 5.545296 -0.4864449 17.01164 -5.484269 1.045575 22.24053 3.381695 2.777323 -18.90904 3.776709 -5.622781 -25.95373 12.23356 94.93455 14.66588 -14.40281 -0 0 14.71537 -26.34126 8.966174 11.56657 5.985123 -27.71515 -9.195692 -89.12889 2.002478 21.90575 0 0 -13.56471 22.1622 13.19144 -15.88657
-1560.378 108.4301 2242.13 -9.941205 2.333429 -101.6032 6.337738 7.784404 -6.655449 -0 3.903227 -0 -17.53862 1.032442 3.228788 1.689406 -12.95894 -1.157954 -0 27.7488 -0 4.817348 -4.103232 17.34111 1.046827 -2.5118 6.084794 -0.5924649 16.63166 -5.08322 1.01598 22.11458 3.40701 2.729805 -19.1201 3.839786 -5.301778 -26.82125 12.19427 93.39729 15.5641 -12.68443 -0 0 16.96327 -26.20128 8.893785 12.1303 5.914646 -26.70607 -8.636364 -90.10556 3.010137 24.07918 0 0 -11.87031 20.89551 13.56104 -14.19759
